HIERARCHY
ROOT Hips
{
	OFFSET 0.00000 0.00000 0.00000
	CHANNELS 6 Xposition Yposition Zposition Zrotation Yrotation Xrotation 
	JOINT LHipJoint
	{
		OFFSET 0 0 0
		CHANNELS 3 Zrotation Yrotation Xrotation
		JOINT LeftHip
		{
			OFFSET 1.23340 -1.80723 0.69510
			CHANNELS 3 Zrotation Yrotation Xrotation
			JOINT LeftKnee
			{
				OFFSET 2.50056 -6.87023 0.00000
				CHANNELS 3 Zrotation Yrotation Xrotation
				JOINT LeftAnkle
				{
					OFFSET 2.85931 -7.85591 0.00000
					CHANNELS 3 Zrotation Yrotation Xrotation
					JOINT LeftToe
					{
						OFFSET 0.21001 -0.57700 2.07823
						CHANNELS 3 Zrotation Yrotation Xrotation
						End Site
						{
							OFFSET 0.00000 -0.00000 1.08338
						}
					}
				}
			}
		}
	}
	JOINT RHipJoint
	{
		OFFSET 0 0 0
		CHANNELS 3 Zrotation Yrotation Xrotation
		JOINT RightHip
		{
			OFFSET -1.40842 -1.80723 0.69510
			CHANNELS 3 Zrotation Yrotation Xrotation
			JOINT RightKnee
			{
				OFFSET -2.54876 -7.00266 0.00000
				CHANNELS 3 Zrotation Yrotation Xrotation
				JOINT RightAnkle
				{
					OFFSET -2.74835 -7.55104 0.00000
					CHANNELS 3 Zrotation Yrotation Xrotation
					JOINT RightToe
					{
						OFFSET -0.22633 -0.62184 2.00890
						CHANNELS 3 Zrotation Yrotation Xrotation
						End Site
						{
							OFFSET -0.00000 -0.00000 1.05493
						}
					}
				}
			}
		}
	}
	JOINT lowerback
	{
		OFFSET 0 0 0
		CHANNELS 3 Zrotation Yrotation Xrotation
		JOINT Chest
		{
			OFFSET -0.02340 2.02740 -0.12728
			CHANNELS 3 Zrotation Yrotation Xrotation
			JOINT Chest2
			{
				OFFSET -0.00862 2.03614 -0.01188
				CHANNELS 3 Zrotation Yrotation Xrotation
				JOINT lowerneck
				{
					OFFSET 0 0 0
					CHANNELS 3 Zrotation Yrotation Xrotation
					JOINT Neck
					{
						OFFSET 0.03380 1.76650 0.27670
						CHANNELS 3 Zrotation Yrotation Xrotation
						JOINT Head
						{
							OFFSET -0.01114 1.80516 -0.21451
							CHANNELS 3 Zrotation Yrotation Xrotation
							End Site
							{
								OFFSET -0.00766 1.81942 -0.10287
							}
						}
					}
				}
				JOINT LeftCollar
				{
					OFFSET 0 0 0
					CHANNELS 3 Zrotation Yrotation Xrotation
					JOINT LeftShoulder
					{
						OFFSET 3.22358 1.39475 0.18630
CHANNELS 3 Zrotation Xrotation Yrotation
						JOINT LeftElbow
						{
OFFSET 0 -5.450770 0.000000
CHANNELS 3 Zrotation Xrotation Yrotation
							JOINT LeftWrist
							{
OFFSET 0 -3.054880 0.000000
CHANNELS 3 Zrotation Xrotation Yrotation
								JOINT lhand
								{
									OFFSET 0 0 0
CHANNELS 3 Zrotation Xrotation Yrotation
									JOINT LFingers
									{
OFFSET 0 -0.638820 0.000000
CHANNELS 3 Zrotation Xrotation Yrotation
										End Site
										{
OFFSET 0 -0.515030 0.000000
										}
									}
								}
								JOINT LThumb
								{
OFFSET 0 0.000000 0.000000
CHANNELS 3 Zrotation Xrotation Yrotation
									End Site
									{
OFFSET 0 -0.522900 0.522900
									}
								}
							}
						}
					}
				}
				JOINT RightCollar
				{
					OFFSET 0 0 0
					CHANNELS 3 Zrotation Yrotation Xrotation
					JOINT RightShoulder
					{
						OFFSET -3.57143 1.14055 0.30691
CHANNELS 3 Zrotation Xrotation Yrotation
						JOINT RightElbow
						{
OFFSET 0 -4.887020 -0.000000
CHANNELS 3 Zrotation Xrotation Yrotation
							JOINT RightWrist
							{
OFFSET 0 -3.226030 0.000000
CHANNELS 3 Zrotation Xrotation Yrotation
								JOINT rhand
								{
									OFFSET 0 0 0
CHANNELS 3 Zrotation Xrotation Yrotation
									JOINT RFingers
									{
OFFSET 0 -0.716290 0.000000
CHANNELS 3 Zrotation Xrotation Yrotation
										End Site
										{
OFFSET 0 -0.577490 0.000000
										}
									}
								}
								JOINT RThumb
								{
OFFSET 0 0.000000 0.000000
CHANNELS 3 Zrotation Xrotation Yrotation
									End Site
									{
OFFSET 0 -0.586310 0.586310
									}
								}
							}
						}
					}
				}
			}
		}
	}
}
MOTION
Frames: 13
Frame Time: 0.008333333333333333
1.726123 18.549655 0.520767 76.744954 87.418992 88.518869 0.000000 0.000000 0.000000 -18.874244 1.569661 -14.507940 0.561357 4.799060 13.336224 0.266901 -8.292619 -10.151736 2.614975 -10.043823 -29.118778 0.000000 0.000000 0.000000 0.000000 0.000000 0.000000 0.000000 0.000000 0.000000 0.000000 0.000000 0.000000 0.000000 0.000000 0.000000 -2.341365 -1.136647 -8.324269 -0.529339 -1.221549 -3.403454 0.657755 -0.554341 1.183376 0.250768 -0.313657 -17.680176 0.784271 -0.588520 18.998191 0.156750 -0.134302 8.868955 0.000000 0.000000 0.000000 8.179554 0.068996 -54.555476 22.293804 -33.307477 6.746500 8.842586 -9.089623 -23.353399 0.000000 0.000000 0.000000 -7.125000 0.000000 0.000000 -20.736937 52.375245 3.901199 0.000000 0.000000 0.000000 -2.475155 0.222097 52.036578 -18.928792 -29.329987 -4.995991 -17.219328 -2.321736 -8.682965 0.000000 0.000000 0.000000 7.125000 0.000000 0.000000 6.967093 20.925120 4.048648
1.763337 18.541101 0.506267 84.291729 87.433921 95.837493 0.000000 0.000000 0.000000 -18.919367 1.772162 -14.291628 0.569305 4.832153 13.430421 0.246338 -8.830046 -10.071856 2.602748 -10.022178 -29.048768 0.000000 0.000000 0.000000 0.000000 0.000000 0.000000 0.000000 0.000000 0.000000 0.000000 0.000000 0.000000 0.000000 0.000000 0.000000 -2.221658 -1.166101 -8.413380 -0.496233 -1.268140 -3.357749 0.618324 -0.579903 1.279424 0.177961 -0.365284 -17.709035 0.747214 -0.639328 18.462753 0.148652 -0.174813 8.691146 0.000000 0.000000 0.000000 8.240691 0.597868 -54.544400 20.807128 -31.602286 5.948608 8.989625 -9.094447 -23.443878 0.000000 0.000000 0.000000 -7.125000 0.000000 0.000000 -20.644205 52.485078 3.939463 0.000000 0.000000 0.000000 -2.395563 -0.015663 49.864465 -17.012326 -26.873794 -4.092973 -15.872175 0.768675 -7.753091 0.000000 0.000000 0.000000 7.125000 0.000000 0.000000 7.961146 21.950640 4.450168
1.805195 18.530329 0.495388 85.482957 87.428714 96.895554 0.000000 0.000000 0.000000 -18.956511 1.872227 -14.010442 0.558298 4.786158 13.299706 0.225426 -8.942290 -9.832480 2.223927 -9.317583 -26.794001 0.000000 0.000000 0.000000 0.000000 0.000000 0.000000 0.000000 0.000000 0.000000 0.000000 0.000000 0.000000 0.000000 0.000000 0.000000 -2.045114 -1.118799 -8.448146 -0.524247 -1.213197 -3.556696 0.497192 -0.547731 1.087623 0.101444 -0.440139 -17.552294 0.798960 -0.728899 18.570813 0.168062 -0.214876 8.700669 0.000000 0.000000 0.000000 8.301903 1.680037 -53.371720 19.098220 -29.540448 5.079240 8.297381 -7.680335 -23.916984 0.000000 0.000000 0.000000 -7.125000 0.000000 0.000000 -21.563104 52.806454 4.302613 0.000000 0.000000 0.000000 -2.306313 0.761708 48.416335 -15.618182 -25.000185 -3.483005 -16.778007 1.562837 -8.342460 0.000000 0.000000 0.000000 7.125000 0.000000 0.000000 7.290851 21.300594 4.177657
1.849220 18.526554 0.485300 90.720160 87.485975 102.120387 0.000000 0.000000 0.000000 -18.892297 1.866451 -13.839784 0.553100 4.764111 13.237111 0.214961 -9.227060 -9.808970 2.148042 -9.167962 -26.322089 0.000000 0.000000 0.000000 0.000000 0.000000 0.000000 0.000000 0.000000 0.000000 0.000000 0.000000 0.000000 0.000000 0.000000 0.000000 -1.765684 -1.088523 -8.564794 -0.567246 -1.186354 -3.708986 0.298141 -0.532383 0.987684 0.144514 -0.433912 -17.704811 0.773380 -0.727130 18.717264 0.152494 -0.212035 8.777786 0.000000 0.000000 0.000000 8.578457 2.870077 -52.462608 18.080780 -28.260409 4.587432 8.125153 -6.491248 -24.326553 0.000000 0.000000 0.000000 -7.125000 0.000000 0.000000 -21.957028 53.156109 4.580339 0.000000 0.000000 0.000000 -2.408072 1.883822 47.778788 -15.139542 -24.340174 -3.283223 -16.937433 2.343076 -8.498257 0.000000 0.000000 0.000000 7.125000 0.000000 0.000000 7.172941 21.131241 4.136701
1.867109 18.523201 0.484994 98.736568 87.423912 110.193755 0.000000 0.000000 0.000000 -18.883496 1.867630 -13.902704 0.553001 4.763706 13.235817 0.195199 -9.548891 -9.682927 2.158084 -9.187868 -26.384798 0.000000 0.000000 0.000000 0.000000 0.000000 0.000000 0.000000 0.000000 0.000000 0.000000 0.000000 0.000000 0.000000 0.000000 0.000000 -1.830953 -1.080490 -8.557038 -0.559918 -1.168699 -3.775979 0.344801 -0.520701 0.915242 0.370348 -0.362271 -17.958554 0.683350 -0.674741 18.740485 0.090748 -0.181187 8.830052 0.000000 0.000000 0.000000 8.838859 3.528774 -52.548176 17.702730 -27.774838 4.409814 7.672575 -6.290826 -24.649390 0.000000 0.000000 0.000000 -7.125000 0.000000 0.000000 -22.576738 53.373861 4.843845 0.000000 0.000000 0.000000 -2.443999 2.662151 47.489982 -15.142922 -24.344891 -3.284668 -16.263611 1.778296 -8.778035 0.000000 0.000000 0.000000 7.125000 0.000000 0.000000 7.652618 20.877264 4.462418
1.875654 18.525431 0.477808 105.854866 87.431540 117.356406 0.000000 0.000000 0.000000 -18.810179 1.944916 -14.049904 0.558053 4.785160 13.296718 0.168581 -9.962989 -9.518731 2.123971 -9.119665 -26.170451 0.000000 0.000000 0.000000 0.000000 0.000000 0.000000 0.000000 0.000000 0.000000 0.000000 0.000000 0.000000 0.000000 0.000000 0.000000 -1.739426 -1.041528 -8.602035 -0.504454 -1.123651 -3.772883 0.353971 -0.498760 0.941819 0.436265 -0.346660 -17.926070 0.747447 -0.683517 18.810383 0.100746 -0.171915 8.848433 0.000000 0.000000 0.000000 8.736747 3.525527 -52.568503 17.599132 -27.640844 4.361651 7.221900 -6.114089 -24.766039 0.000000 0.000000 0.000000 -7.125000 0.000000 0.000000 -23.077170 53.400689 4.976055 0.000000 0.000000 0.000000 -2.379143 2.978091 47.744891 -15.128245 -24.324451 -3.278575 -16.418311 1.953177 -8.359821 0.000000 0.000000 0.000000 7.125000 0.000000 0.000000 7.550174 21.300602 4.328754
1.875641 18.522896 0.470796 109.198524 87.336527 120.742616 0.000000 0.000000 0.000000 -18.864760 1.903136 -14.103152 0.556114 4.776920 13.273332 0.150050 -10.129614 -9.350326 2.064067 -8.998262 -25.789993 0.000000 0.000000 0.000000 0.000000 0.000000 0.000000 0.000000 0.000000 0.000000 0.000000 0.000000 0.000000 0.000000 0.000000 0.000000 -1.764183 -0.975836 -8.577859 -0.524938 -1.033113 -3.822095 0.355941 -0.451758 0.876044 0.654716 -0.336915 -17.654140 0.626942 -0.695609 18.898383 0.022940 -0.172607 8.828419 0.000000 0.000000 0.000000 8.454724 3.309018 -52.460263 17.993640 -28.148940 4.546238 7.068550 -6.536414 -24.541085 0.000000 0.000000 0.000000 -7.125000 0.000000 0.000000 -23.092493 53.167118 4.844082 0.000000 0.000000 0.000000 -2.153612 2.893930 48.243979 -15.430413 -24.742204 -3.404000 -16.392408 1.556826 -8.307326 0.000000 0.000000 0.000000 7.125000 0.000000 0.000000 7.570041 21.355966 4.330704
1.872576 18.524531 0.467427 116.454942 87.104701 128.011669 0.000000 0.000000 0.000000 -18.903549 1.707826 -14.108481 0.553715 4.766731 13.244351 0.130044 -10.331687 -9.182277 2.020392 -8.908356 -25.509027 0.000000 0.000000 0.000000 0.000000 0.000000 0.000000 0.000000 0.000000 0.000000 0.000000 0.000000 0.000000 0.000000 0.000000 0.000000 -1.792349 -0.990065 -8.478916 -0.577935 -1.051029 -3.830221 0.317130 -0.460182 0.812999 0.830600 -0.336951 -17.717235 0.586508 -0.733882 19.066427 -0.024717 -0.179336 8.896759 0.000000 0.000000 0.000000 8.210969 2.972950 -52.601075 18.963583 -29.373425 5.013020 7.104404 -6.919546 -24.493853 0.000000 0.000000 0.000000 -7.125000 0.000000 0.000000 -23.030613 53.130204 4.808496 0.000000 0.000000 0.000000 -1.909576 2.616834 48.876242 -16.005746 -25.528425 -3.648445 -16.511962 1.077840 -8.377154 0.000000 0.000000 0.000000 7.125000 0.000000 0.000000 7.482183 21.277987 4.292946
1.885535 18.522480 0.462494 118.329651 87.023026 129.905708 0.000000 0.000000 0.000000 -18.947938 1.743968 -14.136445 0.555133 4.772791 13.261681 0.124358 -10.480857 -9.185101 2.075599 -9.021665 -25.863194 0.000000 0.000000 0.000000 0.000000 0.000000 0.000000 0.000000 0.000000 0.000000 0.000000 0.000000 0.000000 0.000000 0.000000 0.000000 -1.782799 -0.941788 -8.623545 -0.625218 -0.981304 -3.832614 0.267324 -0.425377 0.887861 0.962941 -0.289120 -17.683865 0.559371 -0.694720 19.211938 -0.050567 -0.151434 8.940287 0.000000 0.000000 0.000000 8.025495 2.713990 -52.701358 19.749405 -30.339245 5.404152 6.679637 -7.731827 -22.865976 0.000000 0.000000 0.000000 -7.125000 0.000000 0.000000 -22.528790 51.560833 3.802235 0.000000 0.000000 0.000000 -1.854707 2.285926 49.892661 -16.465643 -26.147890 -3.848868 -17.385393 0.740087 -8.053875 0.000000 0.000000 0.000000 7.125000 0.000000 0.000000 6.856992 21.569184 3.883336
1.905719 18.520881 0.459369 120.091928 87.045932 131.622681 0.000000 0.000000 0.000000 -18.864086 1.710586 -14.047668 0.562400 4.803313 13.348421 0.128919 -10.548916 -9.285482 2.079045 -9.028509 -25.884777 0.000000 0.000000 0.000000 0.000000 0.000000 0.000000 0.000000 0.000000 0.000000 0.000000 0.000000 0.000000 0.000000 0.000000 0.000000 -1.594416 -0.865110 -8.742386 -0.694038 -0.888190 -3.853646 0.098045 -0.380386 0.926144 1.024240 -0.339232 -17.654749 0.478706 -0.761602 19.235764 -0.096613 -0.186588 8.942444 0.000000 0.000000 0.000000 7.998976 2.572021 -53.231634 20.300617 -31.002787 5.685346 6.883866 -8.352314 -23.538493 0.000000 0.000000 0.000000 -7.125000 0.000000 0.000000 -22.700302 52.214292 4.209287 0.000000 0.000000 0.000000 -1.688849 1.959997 49.923194 -16.761700 -26.542454 -3.980272 -16.726930 0.813068 -8.107769 0.000000 0.000000 0.000000 7.125000 0.000000 0.000000 7.332720 21.545567 4.160825
1.931509 18.520040 0.457733 119.240067 87.044828 130.766626 0.000000 0.000000 0.000000 -18.907648 1.843262 -14.038347 0.568974 4.830798 13.426721 0.129937 -10.633072 -9.345179 2.064620 -8.999333 -25.793195 0.000000 0.000000 0.000000 0.000000 0.000000 0.000000 0.000000 0.000000 0.000000 0.000000 0.000000 0.000000 0.000000 0.000000 0.000000 -1.656724 -0.889709 -8.905092 -0.676294 -0.909913 -3.891875 0.147378 -0.389272 0.977545 1.012221 -0.325182 -17.651162 0.418945 -0.724682 19.286158 -0.110313 -0.176131 8.958920 0.000000 0.000000 0.000000 7.815613 2.591826 -52.893021 20.121529 -30.788455 5.593395 6.659367 -8.146027 -23.684581 0.000000 0.000000 0.000000 -7.125000 0.000000 0.000000 -22.993760 52.310499 4.324624 0.000000 0.000000 0.000000 -1.710324 1.789585 50.228556 -16.722383 -26.490389 -3.962718 -17.183924 0.419993 -8.500141 0.000000 0.000000 0.000000 7.125000 0.000000 0.000000 6.995245 21.116543 4.034940
1.942573 18.518579 0.463672 119.720456 87.102160 131.235524 0.000000 0.000000 0.000000 -18.806283 1.794379 -13.971989 0.571505 4.841449 13.456877 0.138047 -10.558250 -9.413991 2.086680 -9.044345 -25.934190 0.000000 0.000000 0.000000 0.000000 0.000000 0.000000 0.000000 0.000000 0.000000 0.000000 0.000000 0.000000 0.000000 0.000000 0.000000 -1.682138 -0.920224 -8.849725 -0.652312 -0.949637 -3.934640 0.183651 -0.407636 0.904265 0.949472 -0.353441 -17.552545 0.527001 -0.770530 19.115773 -0.068727 -0.192706 8.883263 0.000000 0.000000 0.000000 7.749894 2.901069 -52.412046 19.625704 -30.188762 5.341884 7.004989 -7.475151 -22.886378 0.000000 0.000000 0.000000 -7.125000 0.000000 0.000000 -22.233245 51.633015 3.788536 0.000000 0.000000 0.000000 -1.751311 1.834458 50.183876 -16.646150 -26.388959 -3.928786 -17.015089 0.698569 -8.130411 0.000000 0.000000 0.000000 7.125000 0.000000 0.000000 7.123652 21.508199 4.046716
1.956971 18.517841 0.466107 116.581698 87.118667 128.204810 0.000000 0.000000 0.000000 -18.899777 1.930290 -13.972069 0.555844 4.775649 13.269684 0.138181 -10.605660 -9.441045 2.093837 -9.058756 -25.979412 0.000000 0.000000 0.000000 0.000000 0.000000 0.000000 0.000000 0.000000 0.000000 0.000000 0.000000 0.000000 0.000000 0.000000 0.000000 -1.833911 -0.914804 -8.930939 -0.658975 -0.925614 -3.994160 0.263541 -0.392223 0.889107 0.989377 -0.365060 -17.572823 0.432967 -0.776284 19.188215 -0.108194 -0.201865 8.911031 0.000000 0.000000 0.000000 7.691048 3.075625 -51.985769 18.928775 -29.330133 4.995926 6.623489 -6.858874 -23.260273 0.000000 0.000000 0.000000 -7.125000 0.000000 0.000000 -22.793918 51.914535 4.055383 0.000000 0.000000 0.000000 -1.689959 1.972183 49.793463 -16.175083 -25.757473 -3.721729 -17.309913 1.190785 -8.607320 0.000000 0.000000 0.000000 7.125000 0.000000 0.000000 6.902772 20.998757 3.999413
